{
    "asset" : {
        "generator" : "Khronos glTF Blender I/O v3.4.50",
        "version" : "2.0"
    },
    "extensionsUsed" : [
        "KHR_materials_specular",
        "KHR_materials_ior"
    ],
    "scene" : 0,
    "scenes" : [
        {
            "name" : "Scene",
            "nodes" : [
                0
            ]
        }
    ],
    "nodes" : [
        {
            "mesh" : 0,
            "name" : "Sphere01",
            "rotation" : [
                0.5,
                -0.5,
                0.5000000596046448,
                0.5
            ],
            "scale" : [
                0.04300953820347786,
                0.04300953820347786,
                0.06457614153623581
            ],
            "translation" : [
                0.5294492244720459,
                0.3721334934234619,
                -0.046960748732089996
            ]
        }
    ],
    "materials" : [
        {
            "doubleSided" : true,
            "extensions" : {
                "KHR_materials_specular" : {
                    "specularColorFactor" : [
                        0,
                        0,
                        0
                    ]
                },
                "KHR_materials_ior" : {
                    "ior" : 1.4500000476837158
                }
            },
            "name" : "DefaultMaterial",
            "normalTexture" : {
                "index" : 0
            },
            "pbrMetallicRoughness" : {
                "baseColorFactor" : [
                    0.30348125100135803,
                    0.30348125100135803,
                    0.30348125100135803,
                    1
                ],
                "metallicRoughnessTexture" : {
                    "index" : 1
                }
            }
        }
    ],
    "meshes" : [
        {
            "name" : "Mesh",
            "primitives" : [
                {
                    "attributes" : {
                        "POSITION" : 0,
                        "TEXCOORD_0" : 1,
                        "NORMAL" : 2
                    },
                    "indices" : 3,
                    "material" : 0
                }
            ]
        }
    ],
    "textures" : [
        {
            "sampler" : 0,
            "source" : 0
        },
        {
            "sampler" : 0,
            "source" : 1
        }
    ],
    "images" : [
        {
            "bufferView" : 4,
            "mimeType" : "image/png",
            "name" : "tex"
        },
        {
            "bufferView" : 5,
            "mimeType" : "image/png",
            "name" : "tex"
        }
    ],
    "accessors" : [
        {
            "bufferView" : 0,
            "componentType" : 5126,
            "count" : 703,
            "max" : [
                69.58840942382812,
                58.618614196777344,
                14.998435974121094
            ],
            "min" : [
                -71.10414123535156,
                -58.618614196777344,
                -47.836631774902344
            ],
            "type" : "VEC3"
        },
        {
            "bufferView" : 1,
            "componentType" : 5126,
            "count" : 703,
            "type" : "VEC2"
        },
        {
            "bufferView" : 2,
            "componentType" : 5126,
            "count" : 703,
            "type" : "VEC3"
        },
        {
            "bufferView" : 3,
            "componentType" : 5123,
            "count" : 1290,
            "type" : "SCALAR"
        }
    ],
    "bufferViews" : [
        {
            "buffer" : 0,
            "byteLength" : 8436,
            "byteOffset" : 0,
            "target" : 34962
        },
        {
            "buffer" : 0,
            "byteLength" : 5624,
            "byteOffset" : 8436,
            "target" : 34962
        },
        {
            "buffer" : 0,
            "byteLength" : 8436,
            "byteOffset" : 14060,
            "target" : 34962
        },
        {
            "buffer" : 0,
            "byteLength" : 2580,
            "byteOffset" : 22496,
            "target" : 34963
        },
        {
            "buffer" : 0,
            "byteLength" : 1142626,
            "byteOffset" : 25076
        },
        {
            "buffer" : 0,
            "byteLength" : 1011034,
            "byteOffset" : 1167704
        }
    ],
    "samplers" : [
        {
            "magFilter" : 9729,
            "minFilter" : 9987
        }
    ],
    "buffers" : [
        {
            "byteLength" : 2178740,
            "uri" : "data:application/octet-stream;base64,"
        }
    ]
}
