{
    "asset" : {
        "generator" : "Khronos glTF Blender I/O v3.4.50",
        "version" : "2.0"
    },
    "extensionsUsed" : [
        "KHR_materials_specular",
        "KHR_materials_ior"
    ],
    "scene" : 0,
    "scenes" : [
        {
            "name" : "Scene",
            "nodes" : [
                0,
                1
            ]
        }
    ],
    "nodes" : [
        {
            "mesh" : 0,
            "name" : "BezierCurve"
        },
        {
            "name" : "Mesh"
        }
    ],
    "materials" : [
        {
            "doubleSided" : true,
            "extensions" : {
                "KHR_materials_specular" : {
                    "specularColorFactor" : [
                        0,
                        0,
                        0
                    ]
                },
                "KHR_materials_ior" : {
                    "ior" : 0
                }
            },
            "name" : "Material.002",
            "pbrMetallicRoughness" : {
                "baseColorFactor" : [
                    0,
                    0,
                    0,
                    1
                ],
                "metallicFactor" : 0,
                "roughnessFactor" : 0.5
            }
        }
    ],
    "meshes" : [
        {
            "name" : "BezierCurve",
            "primitives" : [
                {
                    "attributes" : {
                        "COLOR_0" : 0,
                        "POSITION" : 1,
                        "TEXCOORD_0" : 2,
                        "NORMAL" : 3
                    },
                    "indices" : 4,
                    "material" : 0
                }
            ]
        }
    ],
    "accessors" : [
        {
            "bufferView" : 0,
            "componentType" : 5123,
            "count" : 403,
            "normalized" : true,
            "type" : "VEC4"
        },
        {
            "bufferView" : 1,
            "componentType" : 5126,
            "count" : 403,
            "max" : [
                1,
                0.010000002570450306,
                0.010000000707805157
            ],
            "min" : [
                -1.0070710182189941,
                -0.010000001639127731,
                -0.23222222924232483
            ],
            "type" : "VEC3"
        },
        {
            "bufferView" : 2,
            "componentType" : 5126,
            "count" : 403,
            "type" : "VEC2"
        },
        {
            "bufferView" : 3,
            "componentType" : 5126,
            "count" : 403,
            "type" : "VEC3"
        },
        {
            "bufferView" : 4,
            "componentType" : 5123,
            "count" : 2160,
            "type" : "SCALAR"
        }
    ],
    "bufferViews" : [
        {
            "buffer" : 0,
            "byteLength" : 3224,
            "byteOffset" : 0,
            "target" : 34962
        },
        {
            "buffer" : 0,
            "byteLength" : 4836,
            "byteOffset" : 3224,
            "target" : 34962
        },
        {
            "buffer" : 0,
            "byteLength" : 3224,
            "byteOffset" : 8060,
            "target" : 34962
        },
        {
            "buffer" : 0,
            "byteLength" : 4836,
            "byteOffset" : 11284,
            "target" : 34962
        },
        {
            "buffer" : 0,
            "byteLength" : 4320,
            "byteOffset" : 16120,
            "target" : 34963
        }
    ],
    "buffers" : [
        {
            "byteLength" : 20440,
            "uri" : "data:application/octet-stream;base64,"
        }
    ]
}
